<mxfile host="65bd71144e">
    <diagram id="A9XqKMHLMKUtQR_2Bs4o" name="第 1 页">
        <mxGraphModel dx="794" dy="587" grid="1" gridSize="10" guides="1" tooltips="1" connect="1" arrows="1" fold="1" page="1" pageScale="1" pageWidth="827" pageHeight="1169" math="0" shadow="0">
            <root>
                <mxCell id="0"/>
                <mxCell id="1" parent="0"/>
                <mxCell id="7" value="LRU" style="shape=callout;whiteSpace=wrap;html=1;perimeter=calloutPerimeter;size=10;position=0.25;fontStyle=1" parent="1" vertex="1">
                    <mxGeometry x="20" y="10" width="80" height="40" as="geometry"/>
                </mxCell>
                <mxCell id="14" style="edgeStyle=none;html=1;exitX=1;exitY=0.25;exitDx=0;exitDy=0;entryX=0;entryY=0.25;entryDx=0;entryDy=0;" parent="1" source="8" target="11" edge="1">
                    <mxGeometry relative="1" as="geometry"/>
                </mxCell>
                <mxCell id="20" style="edgeStyle=none;html=1;exitX=0;exitY=0.75;exitDx=0;exitDy=0;entryX=1;entryY=0.75;entryDx=0;entryDy=0;dashed=1;" parent="1" source="8" target="9" edge="1">
                    <mxGeometry relative="1" as="geometry"/>
                </mxCell>
                <mxCell id="8" value="key3" style="rounded=0;whiteSpace=wrap;html=1;" parent="1" vertex="1">
                    <mxGeometry x="274" y="130" width="50" height="40" as="geometry"/>
                </mxCell>
                <mxCell id="10" style="edgeStyle=none;html=1;exitX=1;exitY=0.25;exitDx=0;exitDy=0;entryX=0;entryY=0.25;entryDx=0;entryDy=0;" parent="1" source="9" target="8" edge="1">
                    <mxGeometry relative="1" as="geometry"/>
                </mxCell>
                <mxCell id="9" value="Head" style="rounded=0;whiteSpace=wrap;html=1;fillColor=#f5f5f5;fontColor=#333333;strokeColor=#666666;" parent="1" vertex="1">
                    <mxGeometry x="174" y="130" width="50" height="40" as="geometry"/>
                </mxCell>
                <mxCell id="15" style="edgeStyle=none;html=1;exitX=1;exitY=0.25;exitDx=0;exitDy=0;entryX=0;entryY=0.25;entryDx=0;entryDy=0;" parent="1" source="11" target="12" edge="1">
                    <mxGeometry relative="1" as="geometry"/>
                </mxCell>
                <mxCell id="19" style="edgeStyle=none;html=1;exitX=0;exitY=0.75;exitDx=0;exitDy=0;entryX=1;entryY=0.75;entryDx=0;entryDy=0;dashed=1;" parent="1" source="11" target="8" edge="1">
                    <mxGeometry relative="1" as="geometry"/>
                </mxCell>
                <mxCell id="11" value="key1" style="rounded=0;whiteSpace=wrap;html=1;" parent="1" vertex="1">
                    <mxGeometry x="374" y="130" width="50" height="40" as="geometry"/>
                </mxCell>
                <mxCell id="16" style="edgeStyle=none;html=1;exitX=1;exitY=0.25;exitDx=0;exitDy=0;entryX=0;entryY=0.25;entryDx=0;entryDy=0;" parent="1" source="12" target="13" edge="1">
                    <mxGeometry relative="1" as="geometry"/>
                </mxCell>
                <mxCell id="18" style="edgeStyle=none;html=1;exitX=0;exitY=0.75;exitDx=0;exitDy=0;dashed=1;" parent="1" source="12" edge="1">
                    <mxGeometry relative="1" as="geometry">
                        <mxPoint x="424" y="160" as="targetPoint"/>
                    </mxGeometry>
                </mxCell>
                <mxCell id="12" value="key2" style="rounded=0;whiteSpace=wrap;html=1;" parent="1" vertex="1">
                    <mxGeometry x="474" y="130" width="50" height="40" as="geometry"/>
                </mxCell>
                <mxCell id="17" style="edgeStyle=none;html=1;exitX=0;exitY=0.75;exitDx=0;exitDy=0;entryX=1;entryY=0.75;entryDx=0;entryDy=0;dashed=1;" parent="1" source="13" target="12" edge="1">
                    <mxGeometry relative="1" as="geometry"/>
                </mxCell>
                <mxCell id="13" value="Tail" style="rounded=0;whiteSpace=wrap;html=1;fillColor=#f5f5f5;fontColor=#333333;strokeColor=#666666;" parent="1" vertex="1">
                    <mxGeometry x="574" y="130" width="50" height="40" as="geometry"/>
                </mxCell>
                <mxCell id="45" value="" style="group;fillColor=#e1d5e7;strokeColor=#9673a6;" parent="1" vertex="1" connectable="0">
                    <mxGeometry x="184" y="20" width="80" height="90" as="geometry"/>
                </mxCell>
                <mxCell id="2" value="Hashmap" style="rounded=0;whiteSpace=wrap;html=1;verticalAlign=top;fontStyle=1;fillColor=#e1d5e7;strokeColor=#9673a6;" parent="45" vertex="1">
                    <mxGeometry width="80" height="90" as="geometry"/>
                </mxCell>
                <mxCell id="3" value="key1" style="rounded=0;whiteSpace=wrap;html=1;fillColor=#e1d5e7;strokeColor=#9673a6;" parent="45" vertex="1">
                    <mxGeometry y="30" width="80" height="20" as="geometry"/>
                </mxCell>
                <mxCell id="5" value="key2" style="rounded=0;whiteSpace=wrap;html=1;fillColor=#e1d5e7;strokeColor=#9673a6;" parent="45" vertex="1">
                    <mxGeometry y="50" width="80" height="20" as="geometry"/>
                </mxCell>
                <mxCell id="6" value="key3" style="rounded=0;whiteSpace=wrap;html=1;fillColor=#e1d5e7;strokeColor=#9673a6;" parent="45" vertex="1">
                    <mxGeometry y="70" width="80" height="20" as="geometry"/>
                </mxCell>
                <mxCell id="49" value="LFU" style="shape=callout;whiteSpace=wrap;html=1;perimeter=calloutPerimeter;size=10;position=0.25;fontStyle=1" parent="1" vertex="1">
                    <mxGeometry x="20" y="400" width="80" height="40" as="geometry"/>
                </mxCell>
                <mxCell id="71" value="" style="endArrow=classic;html=1;rounded=0;" parent="1" edge="1">
                    <mxGeometry width="50" height="50" relative="1" as="geometry">
                        <mxPoint x="690" y="599.5" as="sourcePoint"/>
                        <mxPoint x="810" y="599.5" as="targetPoint"/>
                    </mxGeometry>
                </mxCell>
                <mxCell id="72" value="" style="endArrow=classic;html=1;rounded=0;" parent="1" edge="1">
                    <mxGeometry width="50" height="50" relative="1" as="geometry">
                        <mxPoint x="690" y="599.5" as="sourcePoint"/>
                        <mxPoint x="690" y="499.5" as="targetPoint"/>
                    </mxGeometry>
                </mxCell>
                <mxCell id="73" value="" style="curved=1;endArrow=none;html=1;rounded=0;endFill=0;" parent="1" edge="1">
                    <mxGeometry width="50" height="50" relative="1" as="geometry">
                        <mxPoint x="690" y="599.5" as="sourcePoint"/>
                        <mxPoint x="790" y="599.5" as="targetPoint"/>
                        <Array as="points">
                            <mxPoint x="720" y="549.5"/>
                            <mxPoint x="740" y="489.5"/>
                            <mxPoint x="760" y="549.5"/>
                        </Array>
                    </mxGeometry>
                </mxCell>
                <mxCell id="75" value="符合正态分布，缓存命中率高&lt;br style=&quot;font-size: 12px;&quot;&gt;get:O(n)&lt;br style=&quot;font-size: 12px;&quot;&gt;put: O(n)" style="shape=note;strokeWidth=2;fontSize=12;size=10;whiteSpace=wrap;html=1;fillColor=#fff2cc;strokeColor=#d6b656;fontColor=#666600;align=left;spacingLeft=8;" parent="1" vertex="1">
                    <mxGeometry x="630" y="410" width="184" height="50" as="geometry"/>
                </mxCell>
                <mxCell id="108" value="LFU 2" style="shape=callout;whiteSpace=wrap;html=1;perimeter=calloutPerimeter;size=10;position=0.25;fontStyle=1" parent="1" vertex="1">
                    <mxGeometry x="20" y="630" width="80" height="40" as="geometry"/>
                </mxCell>
                <mxCell id="109" style="edgeStyle=none;html=1;exitX=0.25;exitY=1;exitDx=0;exitDy=0;entryX=0.25;entryY=0;entryDx=0;entryDy=0;" parent="1" source="111" target="116" edge="1">
                    <mxGeometry relative="1" as="geometry"/>
                </mxCell>
                <mxCell id="110" style="edgeStyle=none;html=1;exitX=0.75;exitY=0;exitDx=0;exitDy=0;entryX=0.75;entryY=1;entryDx=0;entryDy=0;dashed=1;" parent="1" source="111" target="127" edge="1">
                    <mxGeometry relative="1" as="geometry">
                        <mxPoint x="306.5" y="670" as="targetPoint"/>
                    </mxGeometry>
                </mxCell>
                <mxCell id="111" value="key3" style="rounded=0;whiteSpace=wrap;html=1;" parent="1" vertex="1">
                    <mxGeometry x="409" y="730" width="50" height="40" as="geometry"/>
                </mxCell>
                <mxCell id="112" style="edgeStyle=none;html=1;exitX=0.25;exitY=1;exitDx=0;exitDy=0;entryX=0.25;entryY=0;entryDx=0;entryDy=0;" parent="1" source="127" target="111" edge="1">
                    <mxGeometry relative="1" as="geometry">
                        <mxPoint x="281.5" y="670" as="sourcePoint"/>
                    </mxGeometry>
                </mxCell>
                <mxCell id="115" style="edgeStyle=none;html=1;exitX=0.75;exitY=0;exitDx=0;exitDy=0;entryX=0.75;entryY=1;entryDx=0;entryDy=0;dashed=1;" parent="1" source="116" target="111" edge="1">
                    <mxGeometry relative="1" as="geometry"/>
                </mxCell>
                <mxCell id="116" value="key1" style="rounded=0;whiteSpace=wrap;html=1;" parent="1" vertex="1">
                    <mxGeometry x="409" y="800" width="50" height="40" as="geometry"/>
                </mxCell>
                <mxCell id="139" style="edgeStyle=orthogonalEdgeStyle;rounded=0;html=1;exitX=0.75;exitY=0;exitDx=0;exitDy=0;entryX=0.75;entryY=1;entryDx=0;entryDy=0;dashed=1;endArrow=classic;endFill=1;" parent="1" source="119" target="129" edge="1">
                    <mxGeometry relative="1" as="geometry"/>
                </mxCell>
                <mxCell id="119" value="key2" style="rounded=0;whiteSpace=wrap;html=1;" parent="1" vertex="1">
                    <mxGeometry x="509" y="730" width="50" height="40" as="geometry"/>
                </mxCell>
                <mxCell id="122" value="" style="group;fillColor=#e1d5e7;strokeColor=#9673a6;" parent="1" vertex="1" connectable="0">
                    <mxGeometry x="170" y="740" width="80" height="90" as="geometry"/>
                </mxCell>
                <mxCell id="123" value="Hashmap" style="rounded=0;whiteSpace=wrap;html=1;verticalAlign=top;fontStyle=1;fillColor=#e1d5e7;strokeColor=#9673a6;" parent="122" vertex="1">
                    <mxGeometry width="80" height="90" as="geometry"/>
                </mxCell>
                <mxCell id="124" value="key1" style="rounded=0;whiteSpace=wrap;html=1;fillColor=#e1d5e7;strokeColor=#9673a6;" parent="122" vertex="1">
                    <mxGeometry y="30" width="80" height="20" as="geometry"/>
                </mxCell>
                <mxCell id="125" value="key2" style="rounded=0;whiteSpace=wrap;html=1;fillColor=#e1d5e7;strokeColor=#9673a6;" parent="122" vertex="1">
                    <mxGeometry y="50" width="80" height="20" as="geometry"/>
                </mxCell>
                <mxCell id="126" value="key3" style="rounded=0;whiteSpace=wrap;html=1;fillColor=#e1d5e7;strokeColor=#9673a6;" parent="122" vertex="1">
                    <mxGeometry y="70" width="80" height="20" as="geometry"/>
                </mxCell>
                <mxCell id="136" style="edgeStyle=orthogonalEdgeStyle;rounded=0;html=1;exitX=1;exitY=0.25;exitDx=0;exitDy=0;entryX=0;entryY=0.25;entryDx=0;entryDy=0;endArrow=classic;endFill=1;" parent="1" source="127" target="129" edge="1">
                    <mxGeometry relative="1" as="geometry"/>
                </mxCell>
                <mxCell id="138" style="edgeStyle=orthogonalEdgeStyle;rounded=0;html=1;exitX=0;exitY=0.75;exitDx=0;exitDy=0;entryX=1;entryY=0.75;entryDx=0;entryDy=0;dashed=1;endArrow=classic;endFill=1;" parent="1" source="127" target="134" edge="1">
                    <mxGeometry relative="1" as="geometry"/>
                </mxCell>
                <mxCell id="127" value="9" style="rounded=0;whiteSpace=wrap;html=1;" parent="1" vertex="1">
                    <mxGeometry x="409" y="660" width="50" height="40" as="geometry"/>
                </mxCell>
                <mxCell id="137" style="edgeStyle=orthogonalEdgeStyle;rounded=0;html=1;exitX=0;exitY=0.75;exitDx=0;exitDy=0;entryX=1;entryY=0.75;entryDx=0;entryDy=0;endArrow=classic;endFill=1;dashed=1;" parent="1" source="129" target="127" edge="1">
                    <mxGeometry relative="1" as="geometry"/>
                </mxCell>
                <mxCell id="140" style="edgeStyle=orthogonalEdgeStyle;rounded=0;html=1;exitX=0.25;exitY=1;exitDx=0;exitDy=0;entryX=0.25;entryY=0;entryDx=0;entryDy=0;endArrow=classic;endFill=1;" parent="1" source="129" target="119" edge="1">
                    <mxGeometry relative="1" as="geometry"/>
                </mxCell>
                <mxCell id="129" value="4" style="rounded=0;whiteSpace=wrap;html=1;" parent="1" vertex="1">
                    <mxGeometry x="509" y="660" width="50" height="40" as="geometry"/>
                </mxCell>
                <mxCell id="133" value="get: O(1)&lt;br style=&quot;font-size: 12px;&quot;&gt;put: O(1)" style="shape=note;strokeWidth=2;fontSize=12;size=11;whiteSpace=wrap;html=1;fillColor=#fff2cc;strokeColor=#d6b656;fontColor=#666600;align=left;spacingLeft=8;" parent="1" vertex="1">
                    <mxGeometry x="640" y="650" width="70" height="40" as="geometry"/>
                </mxCell>
                <mxCell id="135" style="edgeStyle=orthogonalEdgeStyle;rounded=0;html=1;exitX=1;exitY=0.25;exitDx=0;exitDy=0;entryX=0;entryY=0.25;entryDx=0;entryDy=0;endArrow=classic;endFill=1;" parent="1" source="134" target="127" edge="1">
                    <mxGeometry relative="1" as="geometry"/>
                </mxCell>
                <mxCell id="134" value="Head" style="rounded=0;whiteSpace=wrap;html=1;fillColor=#f5f5f5;fontColor=#333333;strokeColor=#666666;" parent="1" vertex="1">
                    <mxGeometry x="309" y="660" width="50" height="40" as="geometry"/>
                </mxCell>
                <mxCell id="146" value="" style="group;fillColor=#fff2cc;strokeColor=#d6b656;" parent="1" vertex="1" connectable="0">
                    <mxGeometry x="170" y="650" width="80" height="70" as="geometry"/>
                </mxCell>
                <mxCell id="142" value="Hashmap" style="rounded=0;whiteSpace=wrap;html=1;verticalAlign=top;fontStyle=1;container=0;fillColor=#fff2cc;strokeColor=#d6b656;" parent="146" vertex="1">
                    <mxGeometry width="80" height="70" as="geometry"/>
                </mxCell>
                <mxCell id="143" value="9" style="rounded=0;whiteSpace=wrap;html=1;container=0;fillColor=#fff2cc;strokeColor=#d6b656;" parent="146" vertex="1">
                    <mxGeometry y="30" width="80" height="20" as="geometry"/>
                </mxCell>
                <mxCell id="144" value="4" style="rounded=0;whiteSpace=wrap;html=1;container=0;fillColor=#fff2cc;strokeColor=#d6b656;" parent="146" vertex="1">
                    <mxGeometry y="50" width="80" height="20" as="geometry"/>
                </mxCell>
                <mxCell id="147" style="edgeStyle=orthogonalEdgeStyle;rounded=0;html=1;exitX=1;exitY=0.5;exitDx=0;exitDy=0;entryX=0;entryY=0.5;entryDx=0;entryDy=0;endArrow=classic;endFill=1;dashed=1;fillColor=#e1d5e7;strokeColor=#9673a6;" parent="1" source="124" target="116" edge="1">
                    <mxGeometry relative="1" as="geometry">
                        <Array as="points">
                            <mxPoint x="340" y="780"/>
                            <mxPoint x="340" y="820"/>
                        </Array>
                    </mxGeometry>
                </mxCell>
                <mxCell id="148" style="edgeStyle=orthogonalEdgeStyle;rounded=0;html=1;exitX=1;exitY=0.5;exitDx=0;exitDy=0;entryX=0;entryY=0.5;entryDx=0;entryDy=0;dashed=1;endArrow=classic;endFill=1;fillColor=#e1d5e7;strokeColor=#9673a6;" parent="1" source="125" target="119" edge="1">
                    <mxGeometry relative="1" as="geometry">
                        <Array as="points">
                            <mxPoint x="290" y="800"/>
                            <mxPoint x="290" y="720"/>
                            <mxPoint x="490" y="720"/>
                            <mxPoint x="490" y="750"/>
                        </Array>
                    </mxGeometry>
                </mxCell>
                <mxCell id="149" style="edgeStyle=orthogonalEdgeStyle;rounded=0;html=1;exitX=1;exitY=0.5;exitDx=0;exitDy=0;entryX=0;entryY=0.5;entryDx=0;entryDy=0;dashed=1;endArrow=classic;endFill=1;fillColor=#e1d5e7;strokeColor=#9673a6;" parent="1" source="126" target="111" edge="1">
                    <mxGeometry relative="1" as="geometry">
                        <Array as="points">
                            <mxPoint x="320" y="820"/>
                            <mxPoint x="320" y="750"/>
                        </Array>
                    </mxGeometry>
                </mxCell>
                <mxCell id="150" style="edgeStyle=orthogonalEdgeStyle;rounded=0;html=1;exitX=1;exitY=0.5;exitDx=0;exitDy=0;entryX=0.5;entryY=0;entryDx=0;entryDy=0;dashed=1;endArrow=classic;endFill=1;fillColor=#fff2cc;strokeColor=#d6b656;" parent="1" source="143" target="127" edge="1">
                    <mxGeometry relative="1" as="geometry">
                        <Array as="points">
                            <mxPoint x="290" y="690"/>
                            <mxPoint x="290" y="640"/>
                            <mxPoint x="434" y="640"/>
                        </Array>
                    </mxGeometry>
                </mxCell>
                <mxCell id="151" style="edgeStyle=orthogonalEdgeStyle;rounded=0;html=1;exitX=1;exitY=0.5;exitDx=0;exitDy=0;entryX=0.5;entryY=0;entryDx=0;entryDy=0;dashed=1;endArrow=classic;endFill=1;fillColor=#fff2cc;strokeColor=#d6b656;" parent="1" source="144" target="129" edge="1">
                    <mxGeometry relative="1" as="geometry">
                        <Array as="points">
                            <mxPoint x="300" y="710"/>
                            <mxPoint x="300" y="630"/>
                            <mxPoint x="534" y="630"/>
                        </Array>
                    </mxGeometry>
                </mxCell>
                <mxCell id="152" style="edgeStyle=orthogonalEdgeStyle;html=1;exitX=1;exitY=0.5;exitDx=0;exitDy=0;entryX=0.5;entryY=0;entryDx=0;entryDy=0;rounded=0;dashed=1;fillColor=#e1d5e7;strokeColor=#9673a6;" edge="1" parent="1" source="3" target="11">
                    <mxGeometry relative="1" as="geometry"/>
                </mxCell>
                <mxCell id="153" style="edgeStyle=orthogonalEdgeStyle;rounded=0;html=1;exitX=1;exitY=0.5;exitDx=0;exitDy=0;entryX=0.5;entryY=0;entryDx=0;entryDy=0;dashed=1;fillColor=#e1d5e7;strokeColor=#9673a6;" edge="1" parent="1" source="5" target="12">
                    <mxGeometry relative="1" as="geometry"/>
                </mxCell>
                <mxCell id="155" style="edgeStyle=orthogonalEdgeStyle;rounded=0;html=1;exitX=1;exitY=0.5;exitDx=0;exitDy=0;entryX=0.5;entryY=0;entryDx=0;entryDy=0;dashed=1;fillColor=#e1d5e7;strokeColor=#9673a6;" edge="1" parent="1" source="6" target="8">
                    <mxGeometry relative="1" as="geometry"/>
                </mxCell>
                <mxCell id="156" value="SLRU" style="shape=callout;whiteSpace=wrap;html=1;perimeter=calloutPerimeter;size=10;position=0.25;fontStyle=1" vertex="1" parent="1">
                    <mxGeometry x="20" y="200" width="80" height="40" as="geometry"/>
                </mxCell>
                <mxCell id="181" value="第二次访问&lt;br&gt;进入保护段" style="edgeStyle=none;rounded=0;html=1;exitX=1;exitY=0.25;exitDx=0;exitDy=0;entryX=0;entryY=0.25;entryDx=0;entryDy=0;" edge="1" parent="1" source="161" target="178">
                    <mxGeometry x="0.0909" y="15" relative="1" as="geometry">
                        <mxPoint as="offset"/>
                    </mxGeometry>
                </mxCell>
                <mxCell id="184" style="edgeStyle=none;rounded=0;html=1;exitX=0.5;exitY=1;exitDx=0;exitDy=0;entryX=0.5;entryY=0;entryDx=0;entryDy=0;dashed=1;" edge="1" parent="1" source="161" target="183">
                    <mxGeometry relative="1" as="geometry"/>
                </mxCell>
                <mxCell id="161" value="淘汰段 LRU" style="rounded=0;whiteSpace=wrap;html=1;fillColor=#f8cecc;strokeColor=#b85450;" vertex="1" parent="1">
                    <mxGeometry x="349" y="250" width="100" height="60" as="geometry"/>
                </mxCell>
                <mxCell id="182" value="保护段淘汰&lt;br&gt;进入淘汰段" style="edgeStyle=none;rounded=0;html=1;exitX=0;exitY=0.75;exitDx=0;exitDy=0;entryX=1;entryY=0.75;entryDx=0;entryDy=0;dashed=1;" edge="1" parent="1" source="178" target="161">
                    <mxGeometry relative="1" as="geometry"/>
                </mxCell>
                <mxCell id="178" value="保护段 LRU" style="rounded=0;whiteSpace=wrap;html=1;fillColor=#d5e8d4;strokeColor=#82b366;" vertex="1" parent="1">
                    <mxGeometry x="559" y="250" width="100" height="60" as="geometry"/>
                </mxCell>
                <mxCell id="180" value="第一次访问&lt;br&gt;进入淘汰段" style="rounded=0;html=1;exitX=1;exitY=0.5;exitDx=0;exitDy=0;entryX=0;entryY=0.5;entryDx=0;entryDy=0;" edge="1" parent="1" source="179" target="161">
                    <mxGeometry relative="1" as="geometry"/>
                </mxCell>
                <mxCell id="179" value="Client" style="rounded=0;whiteSpace=wrap;html=1;" vertex="1" parent="1">
                    <mxGeometry x="169" y="260" width="60" height="40" as="geometry"/>
                </mxCell>
                <mxCell id="183" value="淘汰" style="rounded=0;whiteSpace=wrap;html=1;dashed=1;" vertex="1" parent="1">
                    <mxGeometry x="359" y="330" width="80" height="30" as="geometry"/>
                </mxCell>
                <mxCell id="185" style="edgeStyle=none;html=1;exitX=1;exitY=0.25;exitDx=0;exitDy=0;entryX=0;entryY=0.25;entryDx=0;entryDy=0;" edge="1" parent="1" source="187" target="192">
                    <mxGeometry relative="1" as="geometry"/>
                </mxCell>
                <mxCell id="186" style="edgeStyle=none;html=1;exitX=0;exitY=0.75;exitDx=0;exitDy=0;entryX=1;entryY=0.75;entryDx=0;entryDy=0;dashed=1;" edge="1" parent="1" source="187" target="189">
                    <mxGeometry relative="1" as="geometry"/>
                </mxCell>
                <mxCell id="187" value="key3&lt;br&gt;(10)" style="rounded=0;whiteSpace=wrap;html=1;" vertex="1" parent="1">
                    <mxGeometry x="240" y="560" width="50" height="40" as="geometry"/>
                </mxCell>
                <mxCell id="188" style="edgeStyle=none;html=1;exitX=1;exitY=0.25;exitDx=0;exitDy=0;entryX=0;entryY=0.25;entryDx=0;entryDy=0;" edge="1" parent="1" source="189" target="187">
                    <mxGeometry relative="1" as="geometry"/>
                </mxCell>
                <mxCell id="189" value="Head" style="rounded=0;whiteSpace=wrap;html=1;fillColor=#f5f5f5;fontColor=#333333;strokeColor=#666666;" vertex="1" parent="1">
                    <mxGeometry x="140" y="560" width="50" height="40" as="geometry"/>
                </mxCell>
                <mxCell id="190" style="edgeStyle=none;html=1;exitX=1;exitY=0.25;exitDx=0;exitDy=0;entryX=0;entryY=0.25;entryDx=0;entryDy=0;" edge="1" parent="1" source="192" target="195">
                    <mxGeometry relative="1" as="geometry"/>
                </mxCell>
                <mxCell id="191" style="edgeStyle=none;html=1;exitX=0;exitY=0.75;exitDx=0;exitDy=0;entryX=1;entryY=0.75;entryDx=0;entryDy=0;dashed=1;" edge="1" parent="1" source="192" target="187">
                    <mxGeometry relative="1" as="geometry"/>
                </mxCell>
                <mxCell id="192" value="key1&lt;br&gt;(8)" style="rounded=0;whiteSpace=wrap;html=1;" vertex="1" parent="1">
                    <mxGeometry x="340" y="560" width="50" height="40" as="geometry"/>
                </mxCell>
                <mxCell id="193" style="edgeStyle=none;html=1;exitX=1;exitY=0.25;exitDx=0;exitDy=0;entryX=0;entryY=0.25;entryDx=0;entryDy=0;" edge="1" parent="1" source="195" target="197">
                    <mxGeometry relative="1" as="geometry"/>
                </mxCell>
                <mxCell id="194" style="edgeStyle=none;html=1;exitX=0;exitY=0.75;exitDx=0;exitDy=0;dashed=1;" edge="1" parent="1" source="195">
                    <mxGeometry relative="1" as="geometry">
                        <mxPoint x="390" y="590" as="targetPoint"/>
                    </mxGeometry>
                </mxCell>
                <mxCell id="195" value="key2&lt;br&gt;(4)" style="rounded=0;whiteSpace=wrap;html=1;" vertex="1" parent="1">
                    <mxGeometry x="440" y="560" width="50" height="40" as="geometry"/>
                </mxCell>
                <mxCell id="196" style="edgeStyle=none;html=1;exitX=0;exitY=0.75;exitDx=0;exitDy=0;entryX=1;entryY=0.75;entryDx=0;entryDy=0;dashed=1;" edge="1" parent="1" source="197" target="195">
                    <mxGeometry relative="1" as="geometry"/>
                </mxCell>
                <mxCell id="197" value="Tail" style="rounded=0;whiteSpace=wrap;html=1;fillColor=#f5f5f5;fontColor=#333333;strokeColor=#666666;" vertex="1" parent="1">
                    <mxGeometry x="540" y="560" width="50" height="40" as="geometry"/>
                </mxCell>
                <mxCell id="198" value="" style="group;fillColor=#e1d5e7;strokeColor=#9673a6;" vertex="1" connectable="0" parent="1">
                    <mxGeometry x="150" y="450" width="80" height="90" as="geometry"/>
                </mxCell>
                <mxCell id="199" value="Hashmap" style="rounded=0;whiteSpace=wrap;html=1;verticalAlign=top;fontStyle=1;fillColor=#e1d5e7;strokeColor=#9673a6;" vertex="1" parent="198">
                    <mxGeometry width="80" height="90" as="geometry"/>
                </mxCell>
                <mxCell id="200" value="key1" style="rounded=0;whiteSpace=wrap;html=1;fillColor=#e1d5e7;strokeColor=#9673a6;" vertex="1" parent="198">
                    <mxGeometry y="30" width="80" height="20" as="geometry"/>
                </mxCell>
                <mxCell id="201" value="key2" style="rounded=0;whiteSpace=wrap;html=1;fillColor=#e1d5e7;strokeColor=#9673a6;" vertex="1" parent="198">
                    <mxGeometry y="50" width="80" height="20" as="geometry"/>
                </mxCell>
                <mxCell id="202" value="key3" style="rounded=0;whiteSpace=wrap;html=1;fillColor=#e1d5e7;strokeColor=#9673a6;" vertex="1" parent="198">
                    <mxGeometry y="70" width="80" height="20" as="geometry"/>
                </mxCell>
                <mxCell id="203" style="edgeStyle=orthogonalEdgeStyle;html=1;exitX=1;exitY=0.5;exitDx=0;exitDy=0;entryX=0.5;entryY=0;entryDx=0;entryDy=0;rounded=0;dashed=1;fillColor=#e1d5e7;strokeColor=#9673a6;" edge="1" parent="1" source="200" target="192">
                    <mxGeometry relative="1" as="geometry"/>
                </mxCell>
                <mxCell id="204" style="edgeStyle=orthogonalEdgeStyle;rounded=0;html=1;exitX=1;exitY=0.5;exitDx=0;exitDy=0;entryX=0.5;entryY=0;entryDx=0;entryDy=0;dashed=1;fillColor=#e1d5e7;strokeColor=#9673a6;" edge="1" parent="1" source="201" target="195">
                    <mxGeometry relative="1" as="geometry"/>
                </mxCell>
                <mxCell id="205" style="edgeStyle=orthogonalEdgeStyle;rounded=0;html=1;exitX=1;exitY=0.5;exitDx=0;exitDy=0;entryX=0.5;entryY=0;entryDx=0;entryDy=0;dashed=1;fillColor=#e1d5e7;strokeColor=#9673a6;" edge="1" parent="1" source="202" target="187">
                    <mxGeometry relative="1" as="geometry"/>
                </mxCell>
                <mxCell id="206" value="" style="group;fillColor=#e1d5e7;strokeColor=#9673a6;" vertex="1" connectable="0" parent="1">
                    <mxGeometry x="170" y="740" width="80" height="90" as="geometry"/>
                </mxCell>
                <mxCell id="207" value="Hashmap" style="rounded=0;whiteSpace=wrap;html=1;verticalAlign=top;fontStyle=1;fillColor=#e1d5e7;strokeColor=#9673a6;" vertex="1" parent="206">
                    <mxGeometry width="80" height="90" as="geometry"/>
                </mxCell>
                <mxCell id="208" value="key1" style="rounded=0;whiteSpace=wrap;html=1;fillColor=#e1d5e7;strokeColor=#9673a6;" vertex="1" parent="206">
                    <mxGeometry y="30" width="80" height="20" as="geometry"/>
                </mxCell>
                <mxCell id="209" value="key2" style="rounded=0;whiteSpace=wrap;html=1;fillColor=#e1d5e7;strokeColor=#9673a6;" vertex="1" parent="206">
                    <mxGeometry y="50" width="80" height="20" as="geometry"/>
                </mxCell>
                <mxCell id="210" value="key3" style="rounded=0;whiteSpace=wrap;html=1;fillColor=#e1d5e7;strokeColor=#9673a6;" vertex="1" parent="206">
                    <mxGeometry y="70" width="80" height="20" as="geometry"/>
                </mxCell>
                <mxCell id="211" value="" style="endArrow=none;html=1;rounded=0;fontSize=12;" edge="1" parent="1">
                    <mxGeometry width="50" height="50" relative="1" as="geometry">
                        <mxPoint y="190" as="sourcePoint"/>
                        <mxPoint x="820" y="190" as="targetPoint"/>
                    </mxGeometry>
                </mxCell>
                <mxCell id="212" value="" style="endArrow=none;html=1;rounded=0;fontSize=12;" edge="1" parent="1">
                    <mxGeometry width="50" height="50" relative="1" as="geometry">
                        <mxPoint x="4" y="390" as="sourcePoint"/>
                        <mxPoint x="824" y="390" as="targetPoint"/>
                    </mxGeometry>
                </mxCell>
                <mxCell id="213" value="" style="endArrow=none;html=1;rounded=0;fontSize=12;" edge="1" parent="1">
                    <mxGeometry width="50" height="50" relative="1" as="geometry">
                        <mxPoint x="4" y="620" as="sourcePoint"/>
                        <mxPoint x="824" y="620" as="targetPoint"/>
                    </mxGeometry>
                </mxCell>
            </root>
        </mxGraphModel>
    </diagram>
</mxfile>